<?xml version="1.0" encoding="utf-8"?>
<!-- Generator: Adobe Illustrator 15.1.0, SVG Export Plug-In . SVG Version: 6.00 Build 0)  -->
<!DOCTYPE svg PUBLIC "-//W3C//DTD SVG 1.1//EN" "http://www.w3.org/Graphics/SVG/1.1/DTD/svg11.dtd">
<svg version="1.1" id="Layer_1" xmlns="http://www.w3.org/2000/svg" xmlns:xlink="http://www.w3.org/1999/xlink" x="0px" y="0px"
	 width="566.93px" height="566.93px" viewBox="0 0 566.93 566.93" enable-background="new 0 0 566.93 566.93" xml:space="preserve">
<g>
	<path fill="#F1563D" d="M247.498,306.264l0.921-14.018h-40.67l-0.921,14.018h12.422l-2.355,36.593h15.826l2.355-36.593H247.498z"/>
	<path fill="#F1563D" d="M293.965,342.856l-9.158-15.498c-1.153-1.956-2.397-3.837-3.802-5.868
		c6.625-2.107,10.841-7.9,11.232-13.919c0.73-11.285-7.17-15.875-21.854-15.875c-7.257,0-14.348,0.075-19.746,0.376l-3.288,50.784
		h15.88l1.198-18.508h0.768l9.474,18.508H293.965z M275.434,308.625c-0.244,3.762-3.363,5.793-7.718,5.793
		c-0.854,0-2.044-0.075-2.637-0.15l0.707-10.909c0.517-0.075,1.973-0.151,2.998-0.151
		C273.992,303.207,275.628,305.615,275.434,308.625z"/>
	<path fill="#F1563D" d="M311.336,342.856l3.287-50.784h-15.879l-3.287,50.784H311.336z"/>
	<path fill="#F1563D" d="M361.467,308.699c0.727-11.209-7.352-17.003-22.719-17.003c-6.318,0-12.133,0.15-17.441,0.376
		l-3.287,50.784H333.9l1.012-15.648c1.105,0.075,2.045,0.075,2.387,0.075C352.752,327.283,360.828,318.556,361.467,308.699z
		 M345.047,309.151c-0.273,4.213-4.092,6.47-8.189,6.47c-0.256,0-0.598,0-1.189-0.075l0.803-12.413
		c0.688-0.076,1.285-0.076,1.543-0.076C343.477,303.057,345.26,305.841,345.047,309.151z"/>
</g>
<g>
	<path fill="#FFFFFF" d="M203.84,254.837c1.059-22.039-12.593-29.355-32.584-29.355c-9.944,0-19.293,0.271-24.685,0.542
		l-2.917,60.697c6.883,0.361,14.282,0.542,21.69,0.542C187.568,287.263,202.838,275.701,203.84,254.837z M183.378,256.191
		c-0.547,11.381-7.391,16.529-15.813,16.529c-2.232,0-3.547-0.09-4.351-0.271l1.567-32.606c1.429-0.181,2.545-0.181,4.778-0.181
		C182.143,239.662,183.834,246.708,183.378,256.191z"/>
	<path fill="#FFFFFF" d="M222.814,286.886l2.465-51.294H209.4l-2.465,51.294H222.814z"/>
	<path fill="#FFFFFF" d="M277.675,284.227l1.216-25.306h-15.879l-0.749,15.578c-0.865,0.229-2.067,0.38-3.263,0.38
		c-9.818,0-13.835-5.243-13.452-13.223c0.398-8.282,5.375-14.134,16.303-14.134c5.72,0,10.457,0.912,14.319,2.28l3.694-12.918
		c-4.128-1.14-10.313-2.128-16.802-2.128c-21.344,0-33.993,10.943-34.84,28.572c-0.705,14.667,8.386,24.47,28.535,24.47
		C264.612,287.798,272.02,286.43,277.675,284.227z"/>
	<path fill="#FFFFFF" d="M300.05,286.886l2.465-51.294h-15.88l-2.465,51.294H300.05z"/>
	<path fill="#FFFFFF" d="M344.864,247.75l0.584-12.159h-40.81l-0.584,12.159h12.465l-1.881,39.135h15.88l1.881-39.135H344.864z"/>
	<path fill="#FFFFFF" d="M392.9,286.886l-16.829-51.294h-19.039l-20.82,51.294h15.709l3.219-8.358h17.929l2.501,8.358H392.9z
		 M369.76,267.432h-10.415l3.522-9.347c0.978-2.583,1.692-5.015,2.313-7.295h0.171c0.403,2.28,0.969,4.711,1.702,7.22
		L369.76,267.432z"/>
	<path fill="#FFFFFF" d="M426.007,286.886l0.606-12.614h-15.88l1.858-38.68h-15.88l-2.465,51.294H426.007z"/>
</g>
<line fill="none" x1="281.333" y1="78.333" x2="281.667" y2="78.667"/>
</svg>
