<?xml version="1.0" encoding="utf-8"?>
<!-- Generator: Adobe Illustrator 17.1.0, SVG Export Plug-In . SVG Version: 6.00 Build 0)  -->
<!DOCTYPE svg PUBLIC "-//W3C//DTD SVG 1.1//EN" "http://www.w3.org/Graphics/SVG/1.1/DTD/svg11.dtd">
<svg version="1.1" id="Layer_1" xmlns="http://www.w3.org/2000/svg" xmlns:xlink="http://www.w3.org/1999/xlink" x="0px" y="0px"
	 viewBox="136 212 302 143" enable-background="new 136 212 302 143" xml:space="preserve">
<g>
	<path fill="#F1563D" d="M247.5,306.3l0.9-14h-40.7l-0.9,14h12.4l-2.4,36.6h15.8l2.4-36.6H247.5z"/>
	<path fill="#F1563D" d="M294,342.9l-9.2-15.5c-1.2-2-2.4-3.8-3.8-5.9c6.6-2.1,10.8-7.9,11.2-13.9c0.7-11.3-7.2-15.9-21.9-15.9
		c-7.3,0-14.3,0.1-19.7,0.4l-3.3,50.8h15.9l1.2-18.5h0.8l9.5,18.5H294z M275.4,308.6c-0.2,3.8-3.4,5.8-7.7,5.8c-0.9,0-2-0.1-2.6-0.1
		l0.7-10.9c0.5-0.1,2-0.2,3-0.2C274,303.2,275.6,305.6,275.4,308.6z"/>
	<path fill="#F1563D" d="M311.3,342.9l3.3-50.8h-15.9l-3.3,50.8H311.3z"/>
	<path fill="#F1563D" d="M361.5,308.7c0.7-11.2-7.4-17-22.7-17c-6.3,0-12.1,0.1-17.4,0.4l-3.3,50.8h15.9l1-15.6
		c1.1,0.1,2,0.1,2.4,0.1C352.8,327.3,360.8,318.6,361.5,308.7z M345,309.2c-0.3,4.2-4.1,6.5-8.2,6.5c-0.3,0-0.6,0-1.2-0.1l0.8-12.4
		c0.7-0.1,1.3-0.1,1.5-0.1C343.5,303.1,345.3,305.8,345,309.2z"/>
</g>
<g>
	<path fill="#FFFFFF" d="M203.8,254.8c1.1-22-12.6-29.4-32.6-29.4c-9.9,0-19.3,0.3-24.7,0.5l-2.9,60.7c6.9,0.4,14.3,0.5,21.7,0.5
		C187.6,287.3,202.8,275.7,203.8,254.8z M183.4,256.2c-0.5,11.4-7.4,16.5-15.8,16.5c-2.2,0-3.5-0.1-4.4-0.3l1.6-32.6
		c1.4-0.2,2.5-0.2,4.8-0.2C182.1,239.7,183.8,246.7,183.4,256.2z"/>
	<path fill="#FFFFFF" d="M222.8,286.9l2.5-51.3h-15.9l-2.5,51.3H222.8z"/>
	<path fill="#FFFFFF" d="M277.7,284.2l1.2-25.3H263l-0.7,15.6c-0.9,0.2-2.1,0.4-3.3,0.4c-9.8,0-13.8-5.2-13.5-13.2
		c0.4-8.3,5.4-14.1,16.3-14.1c5.7,0,10.5,0.9,14.3,2.3l3.7-12.9c-4.1-1.1-10.3-2.1-16.8-2.1c-21.3,0-34,10.9-34.8,28.6
		c-0.7,14.7,8.4,24.5,28.5,24.5C264.6,287.8,272,286.4,277.7,284.2z"/>
	<path fill="#FFFFFF" d="M300,286.9l2.5-51.3h-15.9l-2.5,51.3H300z"/>
	<path fill="#FFFFFF" d="M344.9,247.8l0.6-12.2h-40.8l-0.6,12.2h12.5l-1.9,39.1h15.9l1.9-39.1L344.9,247.8L344.9,247.8z"/>
	<path fill="#FFFFFF" d="M392.9,286.9l-16.8-51.3h-19l-20.8,51.3h15.7l3.2-8.4h17.9l2.5,8.4H392.9z M369.8,267.4h-10.4l3.5-9.3
		c1-2.6,1.7-5,2.3-7.3h0.2c0.4,2.3,1,4.7,1.7,7.2L369.8,267.4z"/>
	<path fill="#FFFFFF" d="M426,286.9l0.6-12.6h-15.9l1.9-38.7h-15.9l-2.5,51.3H426z"/>
</g>
</svg>
